<?xml version="1.0" standalone="no"?>
<!DOCTYPE svg PUBLIC "-//W3C//DTD SVG 20010904//EN"
 "http://www.w3.org/TR/2001/REC-SVG-20010904/DTD/svg10.dtd">
<svg version="1.0" xmlns="http://www.w3.org/2000/svg"
 width="4000.000000pt" height="4000.000000pt" viewBox="0 0 4000.000000 4000.000000"
 preserveAspectRatio="xMidYMid meet">

<g transform="translate(0.000000,4000.000000) scale(0.100000,-0.100000)"
fill="#FFFFFF" stroke="none">
<path d="M24530 37834 c-47 -2 -242 -8 -435 -14 -342 -10 -427 -15 -825 -46
-242 -19 -572 -52 -745 -74 -516 -68 -1049 -157 -1400 -235 -38 -8 -92 -20
-120 -25 -172 -34 -693 -164 -965 -241 -58 -17 -127 -37 -155 -44 -27 -7 -70
-20 -95 -28 -25 -9 -106 -34 -180 -57 -162 -50 -508 -165 -640 -213 -52 -19
-144 -53 -205 -75 -194 -70 -616 -240 -753 -303 -35 -16 -65 -29 -68 -29 -3 0
-106 -45 -264 -117 -30 -14 -71 -32 -90 -41 -19 -8 -171 -82 -336 -162 l-302
-148 -7 -198 c-13 -335 10 -1042 46 -1424 37 -403 63 -623 114 -955 59 -387
177 -933 275 -1270 4 -16 18 -64 30 -105 68 -241 267 -788 345 -952 l23 -47
-27 -24 c-14 -13 -51 -41 -81 -62 -795 -561 -1782 -1464 -2555 -2335 -640
-722 -1172 -1453 -1681 -2310 -196 -329 -480 -887 -636 -1250 -27 -63 -55
-128 -63 -145 -64 -145 -206 -522 -278 -735 -127 -378 -200 -640 -302 -1075
-75 -321 -145 -762 -189 -1195 -15 -137 -44 -641 -49 -835 -2 -107 2 -103
-154 -134 -609 -124 -1389 -14 -2133 301 -194 82 -384 175 -577 283 -142 80
-425 256 -491 305 -42 32 -47 40 -50 80 -7 87 43 582 93 930 15 98 21 139 45
280 20 111 91 486 100 525 5 22 28 123 51 225 80 357 199 804 303 1138 14 45
37 117 50 160 36 114 119 361 166 492 23 63 45 126 50 140 36 116 331 850 420
1045 46 102 67 148 92 205 91 206 368 762 502 1009 595 1094 1234 2036 2035
2996 540 648 1211 1342 1889 1955 57 51 112 109 122 130 77 151 106 404 80
695 -14 154 -48 348 -95 545 -14 58 -28 117 -31 133 -4 15 -11 27 -16 27 -28
0 -643 -499 -953 -774 -354 -314 -524 -475 -935 -886 -481 -481 -752 -773
-1151 -1240 -843 -987 -1657 -2153 -2219 -3176 -18 -32 -56 -102 -85 -154
-117 -213 -366 -703 -458 -900 -88 -190 -106 -230 -139 -305 -20 -44 -54 -120
-76 -170 -96 -218 -264 -643 -400 -1013 -55 -151 -257 -779 -285 -887 -3 -11
-19 -69 -37 -130 -41 -144 -144 -549 -177 -695 -47 -215 -53 -245 -78 -365
-112 -562 -187 -1084 -235 -1655 -19 -228 -50 -793 -50 -923 l0 -86 57 -54
c205 -196 606 -491 933 -687 269 -161 602 -334 855 -444 72 -31 139 -61 150
-66 117 -56 554 -210 834 -295 209 -63 680 -169 931 -209 270 -43 595 -80 822
-92 79 -4 132 -11 138 -19 5 -6 15 -59 20 -116 20 -186 41 -361 61 -504 32
-222 37 -252 64 -400 75 -406 118 -606 224 -1032 47 -187 170 -619 221 -773
10 -30 39 -118 64 -195 43 -136 102 -304 184 -530 41 -115 202 -521 233 -590
9 -22 41 -94 69 -160 29 -66 60 -138 70 -160 10 -22 29 -65 42 -95 219 -494
574 -1153 906 -1685 709 -1130 1552 -2122 2552 -3001 389 -341 838 -690 1284
-995 44 -30 84 -61 89 -70 27 -44 -1507 -1585 -2058 -2069 -289 -254 -445
-371 -587 -442 -84 -41 -98 -38 -187 39 -474 419 -746 676 -1271 1202 -930
932 -1642 1740 -2347 2666 -947 1243 -1688 2495 -2133 3605 -23 58 -51 127
-62 155 -49 118 -179 494 -235 675 -196 644 -306 1249 -333 1845 -11 237 -13
252 -47 353 -143 428 -643 798 -1400 1036 -106 34 -106 34 -99 -11 25 -166 58
-366 66 -403 5 -25 17 -85 26 -135 189 -1037 560 -2407 928 -3430 26 -71 59
-161 72 -200 119 -328 394 -1021 487 -1225 14 -30 37 -84 52 -120 15 -36 43
-98 61 -138 19 -41 34 -75 34 -77 0 -2 27 -60 60 -130 33 -70 60 -129 60 -132
0 -8 367 -744 430 -863 125 -234 155 -288 237 -435 975 -1727 2097 -3111 3448
-4250 463 -391 1123 -855 1640 -1155 61 -35 132 -76 159 -93 l49 -29 71 17
c91 22 208 60 371 123 262 100 502 220 810 405 933 560 1829 1427 2621 2538
87 120 161 219 166 219 5 0 46 -29 91 -64 139 -108 359 -250 597 -385 73 -42
466 -238 560 -280 102 -45 423 -175 512 -207 279 -99 336 -118 613 -199 301
-88 767 -193 1090 -245 72 -11 157 -25 190 -30 453 -72 934 -109 1520 -117
605 -7 1111 15 1610 72 72 9 173 20 225 25 52 6 127 15 165 20 39 6 102 15
140 20 159 23 432 66 505 80 25 5 86 16 135 25 183 33 463 90 725 149 265 58
852 212 1115 291 486 147 797 249 1270 418 115 42 459 174 623 239 151 61 153
61 171 42 18 -18 88 -189 206 -499 107 -282 236 -671 319 -960 14 -49 30 -103
36 -120 13 -42 98 -375 117 -460 8 -38 19 -88 24 -110 81 -365 128 -739 132
-1059 1 -146 -1 -197 -11 -208 -12 -15 -323 -173 -487 -248 -102 -47 -476
-206 -505 -215 -14 -4 -47 -18 -75 -30 -27 -12 -66 -28 -85 -35 -19 -7 -48
-18 -65 -25 -39 -16 -55 -22 -270 -98 -204 -74 -335 -118 -447 -153 -43 -13
-115 -36 -160 -50 -46 -14 -103 -32 -128 -39 -25 -7 -92 -27 -150 -44 -216
-64 -234 -69 -513 -140 -167 -43 -371 -91 -487 -117 -120 -26 -300 -63 -360
-75 -30 -5 -89 -17 -130 -25 -118 -24 -470 -84 -610 -103 -466 -67 -817 -107
-1150 -131 -1003 -76 -2057 -61 -2975 40 -274 30 -529 62 -640 80 -33 5 -107
17 -165 26 -775 119 -1633 318 -2395 555 -262 82 -808 268 -835 284 -12 7
-140 -18 -290 -57 -580 -151 -1032 -404 -1230 -687 -22 -32 -23 -34 -4 -44 29
-17 243 -116 294 -137 25 -10 75 -32 113 -49 37 -17 70 -31 73 -31 3 0 24 -9
47 -19 207 -93 920 -345 1362 -480 314 -97 883 -246 1205 -317 41 -9 91 -20
110 -24 90 -20 545 -111 625 -125 158 -28 378 -65 445 -75 36 -5 110 -16 165
-25 368 -57 868 -112 1315 -144 80 -6 206 -15 280 -21 270 -19 927 -33 1320
-26 629 10 1105 39 1725 105 98 11 125 14 370 46 275 36 669 97 810 125 28 6
136 26 240 46 105 20 294 58 420 86 127 28 248 54 270 59 131 28 645 162 885
231 179 51 205 59 490 148 452 142 1229 424 1485 539 11 5 76 33 145 62 69 28
145 61 170 72 25 11 99 43 165 72 134 59 339 153 551 255 l141 68 13 83 c71
491 86 1374 30 1894 -5 50 -17 155 -25 235 -9 80 -20 174 -25 210 -5 36 -17
112 -25 170 -9 58 -20 125 -25 150 -4 25 -16 86 -25 135 -9 50 -20 108 -25
130 -5 22 -16 74 -25 115 -94 432 -279 1030 -406 1317 -11 23 -19 44 -19 47 0
3 -11 29 -24 58 -13 29 -36 82 -51 118 -46 112 -219 458 -307 615 -562 1005
-1334 1833 -2323 2491 -440 294 -864 520 -1450 776 -88 38 -173 76 -190 83
-100 47 -497 190 -655 237 -360 108 -561 158 -905 228 -733 150 -1481 211
-2295 188 -173 -5 -332 -6 -354 -3 -37 5 -238 60 -341 92 -314 99 -619 215
-945 359 -272 120 -730 364 -1002 535 -507 317 -855 594 -1273 1013 -272 272
-390 406 -574 651 -422 561 -696 1093 -881 1705 -17 58 -36 116 -41 130 -12
36 -83 300 -108 405 -65 269 -91 393 -141 675 -10 58 -33 206 -50 325 -11 79
-34 289 -51 473 -26 287 -26 1003 0 1258 34 323 63 527 107 744 136 676 378
1287 730 1847 205 327 404 579 684 867 267 274 519 490 815 700 77 55 176 132
220 171 381 341 909 672 1450 909 61 27 124 55 140 62 17 7 95 38 174 69 385
149 829 276 1236 354 250 49 230 45 560 91 83 11 345 36 540 50 178 13 852 13
1008 0 104 -9 134 -7 235 10 426 75 898 204 1362 373 118 43 331 126 375 147
11 5 56 24 100 43 162 70 214 94 415 194 641 317 1196 685 1740 1152 184 158
610 585 761 761 351 412 654 847 899 1289 67 123 227 437 267 526 17 39 45
100 62 136 283 625 541 1516 655 2259 9 58 21 132 26 165 5 33 17 116 25 185
9 69 20 159 25 200 44 338 69 817 70 1333 l0 408 -112 53 c-247 117 -466 212
-733 318 -110 43 -209 83 -220 87 -11 5 -40 16 -65 26 -25 10 -54 21 -65 25
-22 9 -189 71 -335 124 -117 42 -586 200 -695 233 -705 216 -1293 371 -1850
488 -414 87 -618 126 -915 175 -102 17 -210 35 -240 40 -30 5 -107 17 -170 25
-63 9 -142 20 -175 26 -33 5 -150 20 -260 33 -179 22 -270 32 -590 66 -49 5
-126 12 -170 15 -44 3 -134 10 -200 15 -403 32 -1305 63 -1565 54z m620 -1204
c594 -22 1123 -67 1705 -144 289 -39 534 -75 680 -102 17 -2 82 -14 145 -25
278 -48 645 -123 935 -190 99 -23 207 -47 240 -55 63 -14 339 -84 510 -129
125 -33 565 -158 625 -178 25 -9 106 -34 180 -57 268 -83 801 -267 955 -329
11 -5 40 -16 65 -26 25 -10 54 -21 65 -26 11 -4 61 -24 110 -44 50 -20 96 -43
104 -50 19 -19 22 -855 3 -1125 -44 -655 -119 -1087 -261 -1510 -146 -432
-370 -779 -607 -936 -84 -56 -85 -56 -117 -41 -170 80 -476 217 -483 217 -2 0
-23 9 -47 19 -80 37 -142 62 -222 93 -44 17 -93 37 -110 44 -30 13 -64 26
-345 128 -181 66 -431 148 -685 225 -39 12 -157 45 -280 80 -155 43 -277 73
-640 156 -134 31 -424 87 -600 116 -66 10 -145 23 -175 29 -30 5 -109 16 -175
25 -66 9 -149 20 -185 25 -36 5 -132 16 -215 25 -82 8 -193 20 -245 25 -359
37 -1096 65 -1445 56 -403 -12 -822 -34 -1050 -57 -285 -28 -572 -61 -725 -84
-403 -59 -649 -102 -980 -171 -166 -35 -190 -40 -400 -89 -517 -121 -1165
-317 -1630 -492 -305 -115 -657 -261 -790 -328 -38 -19 -76 -35 -83 -35 -27 0
-96 60 -140 122 -135 191 -240 480 -372 1023 -49 197 -53 215 -89 390 -78 375
-171 912 -230 1335 -51 361 -58 420 -53 433 5 14 147 99 312 187 44 24 103 56
131 71 108 59 597 299 609 299 2 0 37 16 79 35 398 184 1068 427 1546 562 30
8 75 21 100 29 241 73 766 192 1220 274 183 33 493 78 720 105 74 9 171 20
215 25 544 65 1456 95 2125 70z m125 -4986 c707 -20 1639 -160 2300 -345 74
-21 130 -36 170 -48 506 -138 1187 -395 1734 -652 57 -27 107 -49 111 -49 4 0
13 -6 19 -14 10 -11 5 -27 -21 -73 -63 -113 -195 -320 -247 -388 -506 -660
-1148 -1149 -1901 -1447 -407 -162 -854 -270 -1315 -318 -160 -17 -635 -76
-765 -95 -63 -9 -243 -34 -365 -50 -132 -18 -273 -40 -715 -110 -140 -23 -402
-69 -570 -100 -47 -9 -107 -20 -135 -25 -64 -11 -417 -83 -560 -114 -730 -158
-1321 -329 -1735 -502 -168 -70 -371 -174 -480 -245 -121 -79 -256 -213 -294
-292 -20 -39 -32 -55 -39 -48 -9 9 -163 604 -204 786 -8 39 -19 86 -23 105 -4
19 -20 89 -35 155 -40 180 -55 245 -65 295 -5 25 -32 155 -60 290 -28 135 -55
270 -61 300 -5 30 -19 98 -29 150 -10 52 -24 122 -30 155 -6 33 -22 121 -36
195 -14 74 -29 158 -34 185 -5 28 -18 102 -29 165 -11 63 -38 225 -61 360 -22
135 -44 268 -50 295 -5 28 -12 77 -16 110 l-6 61 103 59 c836 475 2029 891
3114 1085 516 92 915 138 1390 160 401 19 441 19 940 4z m-6939 -2051 c133
-288 260 -824 315 -1318 67 -612 66 -1284 -1 -2020 -7 -77 -20 -143 -35 -185
-13 -36 -46 -126 -73 -200 -28 -74 -74 -198 -102 -275 -29 -77 -67 -180 -85
-230 -19 -49 -64 -173 -100 -275 -36 -102 -77 -215 -91 -252 -68 -189 -111
-311 -177 -503 -19 -55 -69 -199 -112 -320 -105 -301 -399 -1184 -480 -1440
-36 -115 -70 -221 -75 -235 -4 -14 -15 -47 -23 -75 -8 -27 -33 -108 -55 -180
-34 -107 -109 -364 -197 -670 -50 -171 -173 -649 -195 -750 -4 -22 -22 -105
-38 -185 -74 -352 -94 -499 -95 -695 0 -124 3 -170 16 -205 9 -24 14 -46 12
-48 -4 -4 -119 27 -290 78 -33 10 -107 32 -165 50 -58 17 -116 35 -130 40 -14
5 -86 28 -160 51 -299 92 -932 315 -1065 374 -16 8 -93 39 -170 70 -599 243
-1062 502 -1303 730 -68 64 -72 70 -72 111 0 53 26 341 40 444 6 41 17 127 26
190 30 222 79 491 140 771 32 148 115 489 134 554 5 17 17 57 26 90 9 33 20
71 24 85 5 14 16 52 26 85 45 159 168 536 220 680 79 214 189 495 224 572 11
24 20 45 20 48 0 7 1 8 125 285 145 320 329 681 534 1045 66 116 233 390 328
538 717 1112 1626 2110 2703 2969 141 112 334 258 342 258 4 0 19 -26 34 -57z
m-4872 -10458 c33 -8 77 -20 96 -25 332 -92 659 -207 980 -342 184 -78 288
-126 491 -228 304 -152 536 -287 810 -470 432 -288 748 -549 1099 -906 391
-398 678 -776 947 -1248 75 -131 221 -423 269 -538 14 -35 32 -76 39 -93 87
-190 252 -703 305 -945 7 -30 16 -71 20 -90 7 -31 16 -77 59 -305 11 -55 34
-212 51 -345 64 -508 64 -1265 0 -1830 -25 -222 -41 -350 -50 -405 -46 -283
-72 -433 -90 -520 -5 -27 -15 -76 -21 -108 -9 -45 -16 -58 -33 -62 -35 -8
-305 -45 -330 -45 -48 0 -499 340 -870 654 -448 381 -1033 963 -1427 1421
-880 1024 -1556 2160 -1951 3280 -51 144 -124 366 -138 420 -5 17 -22 78 -39
137 -33 114 -36 126 -75 288 -29 117 -73 319 -86 395 -5 28 -16 91 -25 140
-67 371 -104 764 -112 1210 -5 309 1 575 14 575 3 0 33 -7 67 -15z m6854
-6065 c9 -5 64 -28 122 -51 58 -22 114 -45 125 -49 189 -75 573 -202 830 -275
28 -8 88 -25 135 -39 120 -34 451 -120 605 -156 72 -17 157 -37 190 -45 33 -8
94 -22 135 -30 41 -9 127 -27 190 -41 63 -13 193 -40 287 -59 167 -34 203 -40
453 -84 63 -12 140 -25 170 -31 195 -37 815 -129 1170 -174 69 -9 159 -21 200
-26 41 -6 120 -15 175 -21 55 -5 138 -14 185 -20 47 -5 135 -14 195 -19 296
-27 709 -100 955 -170 307 -86 591 -187 835 -294 33 -15 83 -37 110 -49 97
-42 412 -205 545 -282 623 -359 1245 -857 1702 -1363 102 -112 119 -136 107
-147 -43 -40 -718 -383 -974 -495 -66 -29 -139 -61 -162 -71 -23 -11 -44 -19
-47 -19 -3 0 -29 -11 -58 -24 -118 -53 -548 -212 -710 -262 -43 -13 -115 -36
-160 -50 -83 -26 -108 -33 -273 -79 -444 -123 -946 -218 -1455 -274 -728 -80
-1536 -65 -2300 45 -96 13 -195 29 -220 34 -25 5 -85 16 -135 25 -116 21 -274
53 -350 70 -33 8 -100 23 -150 34 -96 22 -265 67 -386 101 -41 12 -83 24 -94
27 -308 80 -992 334 -1333 494 -46 21 -86 39 -88 39 -7 0 -375 185 -474 238
-79 42 -313 175 -363 206 -196 121 -327 210 -327 223 0 8 7 29 15 46 47 103
145 396 203 607 150 545 248 1083 332 1825 13 118 37 395 45 515 6 106 15 180
21 180 2 0 12 -4 22 -10z"/>
</g>
</svg>
