<?xml version="1.0" standalone="no"?>
<!DOCTYPE svg PUBLIC "-//W3C//DTD SVG 20010904//EN"
 "http://www.w3.org/TR/2001/REC-SVG-20010904/DTD/svg10.dtd">
<svg version="1.0" xmlns="http://www.w3.org/2000/svg"
 width="341.000000pt" height="148.000000pt" viewBox="0 0 341.000000 148.000000"
 preserveAspectRatio="xMidYMid meet">

<g transform="translate(0.000000,148.000000) scale(0.100000,-0.100000)"
fill="#000000" stroke="none">
<path d="M625 1220 c10 -11 20 -20 23 -20 3 0 -3 9 -13 20 -10 11 -20 20 -23
20 -3 0 3 -9 13 -20z"/>
<path d="M665 1170 c10 -11 20 -20 23 -20 3 0 -3 9 -13 20 -10 11 -20 20 -23
20 -3 0 3 -9 13 -20z"/>
<path d="M1182 1094 c-157 -78 -185 -300 -53 -416 50 -44 97 -61 171 -62 226
-1 339 273 179 433 -75 76 -198 94 -297 45z m72 -146 c15 -13 29 -38 32 -55
l7 -33 -72 0 c-62 0 -71 -2 -71 -18 0 -41 57 -57 91 -26 10 9 26 14 36 12 16
-3 15 -7 -9 -31 -45 -45 -117 -35 -146 20 -50 93 56 198 132 131z m109 -8 c10
-16 22 -30 26 -30 4 0 17 14 29 30 13 17 32 30 43 30 19 0 18 -4 -14 -47 l-35
-47 39 -53 c39 -52 39 -53 15 -53 -17 0 -31 10 -46 35 -12 19 -25 35 -30 35
-5 0 -18 -16 -30 -35 -13 -20 -30 -35 -41 -35 -25 0 -25 3 15 57 l34 48 -35
47 c-34 47 -34 48 -11 48 16 0 30 -10 41 -30z"/>
<path d="M1168 929 c-36 -21 -21 -39 32 -39 52 0 60 8 34 34 -18 18 -41 20
-66 5z"/>
<path d="M710 1101 c0 -6 4 -13 10 -16 6 -3 7 1 4 9 -7 18 -14 21 -14 7z"/>
<path d="M741 1034 c-1 -7 -29 -17 -62 -23 -34 -6 -63 -12 -65 -13 -2 -3 -7
-288 -5 -343 1 -16 6 -37 11 -45 13 -21 70 36 111 114 29 54 34 72 37 156 3
70 0 104 -11 130 -9 19 -16 30 -16 24z"/>
<path d="M421 904 c0 -11 3 -14 6 -6 3 7 2 16 -1 19 -3 4 -6 -2 -5 -13z"/>
<path d="M694 418 c-5 -13 -7 -27 -6 -31 1 -5 -1 -6 -6 -3 -4 2 -20 -19 -36
-47 -15 -29 -20 -43 -12 -33 18 22 22 5 6 -25 -21 -39 -1 -18 27 29 l28 47 3
-87 c3 -80 5 -88 22 -88 19 0 20 8 20 130 0 122 -1 130 -19 130 -11 0 -23 -10
-27 -22z"/>
<path d="M1240 305 l0 -135 100 0 c93 0 100 1 100 20 0 18 -7 20 -75 20 l-75
0 0 40 0 40 65 0 c58 0 65 2 65 20 0 18 -7 20 -65 20 l-65 0 0 35 0 35 70 0
c63 0 70 2 70 20 0 19 -7 20 -95 20 l-95 0 0 -135z"/>
<path d="M611 233 c-8 -15 -11 -15 -28 -3 -16 14 -17 14 -4 -2 18 -23 28 -23
41 2 13 24 5 27 -9 3z"/>
</g>
</svg>
